<?xml version="1.0" encoding="UTF-8"?>
<svg id="Layer_1" xmlns="http://www.w3.org/2000/svg" version="1.1" viewBox="0 0 1080 1080">
  <!-- Generator: Adobe Illustrator 29.7.1, SVG Export Plug-In . SVG Version: 2.1.1 Build 8)  -->
  <defs>
    <style>
      .st0 {
        fill: #fff;
      }
    </style>
  </defs>
  <path d="M762.87,549.83c15.19-2.97,28.76-12.36,44.89-12.24,85.53.66,32.23,87.53,36.22,135.99,1.69,20.59,26.55,10.16,16.71,33.26l-46.62-6.77,16.46-113.45c2.99-20.59-14.22-27.86-31.74-27.63-19.75.26-36.13,3.48-40.76,23.32-3.65,15.61-12.34,66.97-11.67,81,.5,10.37,9.56,8.45,15.19,13.6,25.18,23.04-49.07,9.65-58.01,7.28-33.12-8.79,11.41-18.89,12.77-20.38,9.8-10.8,18.65-150.81,26.93-175.54.24-9.58-10.29-10.8-16.76-15.2l-1.66-9.44,42.11-14.23c3.39-.51,9.39,7.77,9.25,8.74l-13.3,91.69Z"/>
  <path d="M362.23,573.47c-.5-2.32-1.22-4.72-2.21-7.2-1.38-3.53-3.29-6.38-5.57-8.66-2.97-2.96-6.63-4.95-10.8-6.22-26.19-8.17-72.16,11.91-90.5,1.74-.23-.11-.43-.22-.67-.36-3.85-2.35-5.31-4.85-5.09-7.8.11-1.92.93-4.09,2.27-6.55,7.33-13.44,24.42-5.47,35.67-6.26,44.04-3.14,71.24-53.64,37.61-87.03-.24-4.41,40.4-14.91,12.51-36.15-13.94-10.6-24.26,23.75-28.31,25.02-58.22-20.1-106.71,40.82-58.76,86-13.36,7.46-22.65,18.59-22.24,30.2.09,4.14,1.4,8.31,4.2,12.4,2.05,3,4.85,5.94,8.51,8.79-5.75,4.87-9.93,10.7-12.27,16.78-3.49,8.94-3.03,18.4,2.06,26.14,3.17,4.83,8.15,9.01,15.13,11.92,5.57,2.35,12.79,3.87,20.94,4.55,7.76.65,16.39.53,25.19-.39,5.16-.52,10.39-1.3,15.54-2.37.03,0,.03-.03.03-.03,7.16-1.47,14.18-3.47,20.74-6.01,17.77-6.9,32.03-17.65,35.87-32.48,1.28-4.91,1.42-10.21.15-16.01ZM269.13,448.46c31.82-10.75,55.74,26.57,40.73,52.46-7.63,13.17-20.44,14.53-34.61,11.03-26.38-6.47-30.36-55.29-6.12-63.48ZM336.01,588c-.34,4.68-3.08,8.91-7.4,12.49-3.92,3.3-9.13,6.08-15.05,8.29-12.4,4.58-27.84,6.52-40.49,4.91-6.89-.88-12.93-2.81-17.29-5.95-3.04-2.19-5.23-4.99-6.25-8.42-2.05-6.83-.34-19.87,5.71-23.77,2.61-1.7,37.3-5.81,44.29-6.54,4.93-.5,10.14-1.22,15.03-1.47,7.88-.35,14.94.65,18.7,6.06,2.18,3.12,3.27,7.72,2.76,14.39Z"/>
  <g>
    <path class="st0" d="M674.63,644.92c22.66-26.13,38.46-59.08,40.24-94.16,14.1,3.3,28.77,4.84,43.23,5.98,15.25,1.21,30.98,2.04,46.18,2.61,5.95.22,15.32-1.01,20.58-.04,2.64.49,4.62,7.25,5.57,9.84,10.94,29.64,4.93,66.76-5.11,95.93l-150.71-20.16Z"/>
    <path d="M835.17,557.6c-5.12-9.85-5.4-6.2-15.42-6.83-30.58-2.03-62.78-1.21-93.07-6.26-4.2-.67-8.3-1.88-12.49-2.48-3.69-13.26-13.1-23.36-27.46-23.9-.83-3.85-2.13-7.63-3.78-11.19-.99-2.16-5.28-8.42-5.5-9.79-.54-3.21,1.97-15.26,1.46-21.27-1.05-12.33-6.83-21.58-15.93-29.53,1.43-21.71-9.76-46.06-32.71-50.7-5.15-32.42-39.57-46.12-67.36-30.04-10.17-12.43-21.14-31.72-40.4-24.76-3.85,1.37-8.17,6.58-9.44,6.9-1.72.44-11.09-3.66-14.46-4.07-23.68-2.77-43.74,9.66-51.02,32.3-3.27,1.18-7.12.57-10.3,1.24-25.05,5.09-38.56,27.4-37.86,52-22.66,10.01-27.37,33.15-21.42,55.63,2,7.63,7.28,13,2,20.41-13.67-1.43-27.88,5.59-33.44,18.37-2.1,4.9-1.84,10.55-3.4,14.56-.25.7-.48,1.18-1.27,1.3-20.95,4.32-41.86,9.12-63.22,11.28-6.83.67-14.56,1.4-21.36,1.75-2.07.1-4.45.03-6.99-.06-6.23-.25-13.26-.83-17.83.03-1.18.22-2.48,1.62-3.75,3.56-3.31,5.02-6.48,13.89-7.41,16.97-10.9,36.27-.45,92.21,23.78,129.44,2.57,3.97,5.31,7.69,8.2,11.19,5.4,6.61,11.38,12.3,17.83,16.75,43.8,30.26,70.03-12.37,73.08-52.48.22-2.96-.92-12.3.79-13.73,1.4-1.14,24.76-6.68,28.93-7.88,8.3-2.48,16.69-5.44,24.73-8.61,22.28,13.38,55.56,9.03,61.16-19.8,20.85-2.13,41.96-4.23,62.18-10.17,24.22,16.24,51.72,26.38,81.12,27.21,1.37.03,2.86-.86,4.29-.86,2.7.03,6.23,1.49,9.28,1.02,11.54,18.79,32.96,21.33,49.81,7.57l163.26,21.91c3.19-.08,30.1-69.46,5.4-116.95ZM528.04,348.06c7.18-1.05,13.76,4.7,18.15,9.69,10.17,11.54,17.39,26.73,29.85,36.78-6.87,10.62-16.31,19.58-27.81,25.11-3.46,1.68-11.6,5.34-15.1,4.26-4.39-1.33-15.99-27.81-17.32-33.22-2.89-11.89-4.42-40.18,12.24-42.63ZM495.3,352.13c2.89.22,13.57,1.62,12.91,5.18-.95,5.15-3.05,10.55-3.08,16.24-.41.41-4.58-6.1-8.36-2.35-3.62,3.59,2.99,8.04,4.8,10.62,11.16,15.93,20.79,40.97,18.94,60.65-1.84,19.8-17.1,31.85-35.95,21.42-38.11-21.14-49.21-116.34,10.74-111.76ZM445.21,384.68c-2.86,21.17,1.88,41.9,11.82,60.49,2.92,5.47,7.76,13.6,12.11,17.86,2.13,2.13,9.92,6.48,10.3,8.52,2,18.53-15.38,31.12-32.26,22.85-39.83-19.49-61.54-102.13-1.97-109.73ZM400.26,437.76l7.47,24.19c4.9,11.57,11.51,20.95,20.85,29.24,6.26,5.59,12.33,9.69,20.09,13.06,1.88,16.37-12.05,23.59-26.61,19.55-31.15-8.68-55.15-66.05-21.81-86.05ZM296.89,679.79c11.86-.32,26.26-2.38,23.65,14.65-2.7,17.61-54.99,21.33-58.9,3.21-1.02-4.74.79-13.41,5.09-15.77,1.81-.99,25.43-1.97,30.17-2.1ZM390.41,642.34c-39.38,12.21-79.24,21.71-120.38,25.97-1.94.19-3.91.38-5.88.57-1.88.16-8.52.73-14.53,1.11-5.31.38-10.14.57-10.74.19-6.33-14.94-10.93-32.42-12.52-50.03-.86-8.8-.92-17.64-.06-26.22.76-7.79,2.26-15.35,4.64-22.44.16-.44.54-1.49,1.05-2.77,1.08-2.77,2.64-6.48,3.02-6.87,1.3-1.33,13.32-.95,20.44-.83,1.94.03,3.53.03,4.42,0,9.54-.48,19.52-1.49,28.99-2.7,18.34-2.29,36.65-6.26,54.48-11,.22,6.2,1.05,12.52,2.48,18.85,2.96,13.51,8.46,27.05,15.48,39.38,5.59,9.82,12.17,18.88,19.26,26.54,2.67,2.86,6.9,5.69,9.03,8.11.67.73,1.11.95.83,2.13ZM500.99,613.83c-22.06,4.1-49.75,9.44-70.66-.7-3.43-1.68-6.9-5.91-10.84-4.67-2.48.79-3.12,2.61-2.38,5.05,1.68,5.66,27.62,14.91,34.08,13.45-2.8,16.31-19.8,21.65-34.46,18.6-22.82-4.74-43.01-32.61-54.07-55.95-2.16-4.58-3.97-8.96-5.4-12.97-.38-1.08-.76-2.22-1.14-3.43-5.56-17.77-9.92-48.35,9.28-57.31,1.97-.92,11.48-3.75,12.62-1.94-1.46,7.6-1.84,15.67-1.18,23.43.22,2.57,2.07,13.8,3.24,15.35,1.11,1.49,4.58,1.94,6.07,1.05,3.05-1.84-.48-10.84-.79-13.83-1.24-11.7-.67-21.46,2.51-32.87,8.65,10.3,16.91,19.9,30.36,24,20.25,6.23,39.96-2.64,38.97-25.72,17.39.13,31.06-13.26,30.83-30.8,25.78,8.36,43.74-17.55,41.07-41.1,18.5-1.27,37.13-12.87,48.76-26.99,3.15-3.78,11.54-15.73,10.14-20.34-1.08-3.62-6.26-2.8-7.95.22-1.97-2.1-13.16-12.11-11.54-14.49,19.26-8.71,40.02-5.34,49.94,14.62,12.84,25.91-6.26,57.18-23.84,75.72-2.35,2.48-7.98,5.94-8.17,9.44-.22,3.75,3.97,4.67,6.87,3.34,1.11-.51,12.56-12.24,14.15-14.11,13.48-15.67,22.47-35.76,23.94-56.49,7.95,3.15,13.67,8.17,17.71,15.67,15.1,28.13-2.23,64.11-18.79,87.67-2.26,3.21-8.87,9.79-10.01,12.24-2.51,5.44,2.57,8.96,7.31,4.74,4.55-4.13,12.24-15.58,15.7-21.11,8.58-13.57,15.35-29.43,18.5-45.3,2.61-2.73,8.11,13.6,8.33,15.19,3.91,27.15-14.97,61.19-32.74,80.71-29.15,32.04-94.5,51.88-136.4,59.63ZM656.05,649.05c-11.73,6.58-25.87,4.58-31.09-8.81,8.33-1.78,30.58-18.44,30.67-26.73.03-2.64-3.72-4.64-6.33-2.89-2.32,1.59-6.61,8.77-9.76,11.63-29.53,26.7-74.89,9.54-105.31-6.45-.25-2.19,0-1.37,1.24-1.72,28.04-8.23,54.51-16.37,79.82-31.47,28.45-17.01,46.63-42.53,58.9-72.92,7.57,11.82,6.39,28.42,3.12,41.61-.79,3.18-6.33,15.45-3.4,17.29,6.42,1.56,7.95-3.62,9.66-8.46,3.69-10.27,4.99-22.5,4.77-33.34,8.33,1.27,14.5,7.34,16.72,15.35,7.82,28.54-23.24,92.44-49.02,106.9ZM674.64,644.92c22.63-26.13,38.43-59.09,40.24-94.15,14.08,3.31,28.77,4.83,43.23,5.98,15.26,1.21,30.96,2.03,46.19,2.61,5.94.22,15.32-1.02,20.57-.03,2.64.48,4.64,7.25,5.59,9.82,10.93,29.66,4.93,66.78-5.12,95.93l-150.7-20.15Z"/>
    <path class="st0" d="M594.61,462.19c-2.37,2.5-7.97,5.97-8.17,9.45-.21,3.75,3.96,4.66,6.85,3.33,1.11-.51,12.56-12.24,14.15-14.1,13.47-15.68,22.48-35.77,23.95-56.5,7.93,3.15,13.68,8.18,17.7,15.68,15.1,28.14-2.24,64.1-18.79,87.65-2.26,3.22-8.88,9.79-10.01,12.24-2.52,5.45,2.58,8.98,7.3,4.73,4.55-4.11,12.25-15.57,15.72-21.08,8.57-13.59,15.36-29.45,18.48-45.3,2.61-2.75,8.12,13.6,8.35,15.18,3.9,27.13-14.99,61.2-32.74,80.71-29.16,32.05-94.5,51.88-136.4,59.64-22.06,4.09-49.74,9.43-70.66-.71-3.46-1.67-6.92-5.92-10.85-4.66-2.47.79-3.11,2.59-2.39,5.03,1.69,5.67,27.63,14.91,34.09,13.45-2.81,16.31-19.82,21.66-34.45,18.61-27.31-5.68-50.83-44.44-59.5-68.92-6-16.95-12.37-51.19,8.15-60.76,1.98-.92,11.49-3.75,12.63-1.95-1.47,7.6-1.85,15.67-1.19,23.43.22,2.59,2.08,13.79,3.26,15.36s4.57,1.93,6.06,1.04c3.06-1.82-.47-10.83-.79-13.8-1.26-11.71-.69-21.48,2.49-32.87,8.66,10.29,16.91,19.88,30.35,24,20.28,6.21,39.97-2.63,38.97-25.71,17.39.12,31.07-13.26,30.83-30.81,25.79,8.36,43.74-17.54,41.08-41.1,18.49-1.28,37.12-12.88,48.78-26.99,3.12-3.78,11.52-15.74,10.14-20.34-1.09-3.63-6.28-2.79-7.97.23-1.97-2.12-13.15-12.11-11.52-14.5,19.25-8.71,40.03-5.34,49.93,14.62,12.84,25.88-6.25,57.16-23.84,75.69Z"/>
    <path class="st0" d="M343.32,547.34c.99,29.93,17.12,62.98,37.23,84.76,2.65,2.87,6.9,5.7,9.02,8.1.66.75,1.11.95.83,2.15-41.27,12.77-83.06,22.6-126.27,26.54-3.53.32-23.97,2.08-25.27,1.3-12.35-29.21-18.17-68.08-7.93-98.7.48-1.44,3.53-9.08,4.07-9.63,1.64-1.68,20.7-.63,24.84-.84,9.53-.48,19.52-1.5,28.99-2.68,18.36-2.29,36.66-6.26,54.48-11Z"/>
    <path class="st0" d="M673.9,568.61c6.42,1.54,7.96-3.64,9.68-8.47,3.67-10.27,4.97-22.51,4.75-33.35,8.33,1.27,14.52,7.34,16.72,15.37,7.83,28.54-23.22,92.42-49,106.88-11.74,6.59-25.87,4.58-31.1-8.78,8.33-1.8,30.59-18.45,30.68-26.75.03-2.63-3.71-4.65-6.31-2.89-2.32,1.57-6.62,8.77-9.78,11.62-29.51,26.72-74.89,9.54-105.3-6.45-.26-2.21,0-1.36,1.24-1.72,28.02-8.23,54.51-16.36,79.82-31.48,28.45-16.99,46.62-42.51,58.9-72.92,7.55,11.83,6.39,28.43,3.11,41.61-.79,3.18-6.32,15.47-3.41,17.31Z"/>
    <path class="st0" d="M505.12,373.55c-.41.42-4.57-6.09-8.34-2.35-3.64,3.6,2.96,8.05,4.78,10.63,11.18,15.91,20.8,40.96,18.97,60.62-1.84,19.83-17.1,31.87-35.96,21.43-38.12-21.12-49.22-116.34,10.75-111.76,2.88.22,13.57,1.63,12.9,5.19-.97,5.16-3.06,10.57-3.1,16.24Z"/>
    <path class="st0" d="M445.2,384.68c-2.85,21.16,1.89,41.89,11.84,60.5,2.92,5.45,7.76,13.59,12.1,17.86,2.14,2.11,9.92,6.46,10.31,8.52,2,18.53-15.4,31.1-32.26,22.84-39.84-19.5-61.56-102.12-1.99-109.73Z"/>
    <path class="st0" d="M528.03,348.05c7.19-1.06,13.78,4.71,18.16,9.68,10.16,11.54,17.4,26.74,29.84,36.78-6.84,10.64-16.31,19.6-27.79,25.14-3.48,1.68-11.6,5.33-15.12,4.26-4.38-1.34-15.98-27.82-17.3-33.23-2.9-11.9-4.43-40.17,12.21-42.63Z"/>
    <path class="st0" d="M428.58,491.19c6.27,5.59,12.34,9.71,20.08,13.06,1.89,16.37-12.04,23.61-26.59,19.56-31.17-8.66-55.14-66.04-21.81-86.03l7.48,24.18c4.88,11.58,11.52,20.94,20.84,29.24Z"/>
  </g>
</svg>